<mxfile host="app.diagrams.net" agent="Mozilla/5.0 (Windows NT 10.0; Win64; x64) AppleWebKit/537.36 (KHTML, like Gecko) Chrome/131.0.0.0 Safari/537.36" version="26.0.6">
  <diagram name="Page-1" id="ClhxxgMNaexIfz9TYhE6">
    <mxGraphModel dx="2438" dy="840" grid="1" gridSize="10" guides="1" tooltips="1" connect="1" arrows="1" fold="1" page="1" pageScale="1" pageWidth="850" pageHeight="1100" math="0" shadow="0">
      <root>
        <mxCell id="0" />
        <mxCell id="1" parent="0" />
        <mxCell id="xu_1kdxQS3Lf9o5p_RP--175" value="Job Portal Management System" style="whiteSpace=wrap;strokeWidth=2;fillColor=#dae8fc;strokeColor=#6c8ebf;" vertex="1" parent="1">
          <mxGeometry x="645" y="250" width="260" height="78" as="geometry" />
        </mxCell>
        <mxCell id="xu_1kdxQS3Lf9o5p_RP--176" value="Manage User Profiles" style="whiteSpace=wrap;strokeWidth=2;fillColor=#fff2cc;strokeColor=#d6b656;" vertex="1" parent="1">
          <mxGeometry x="-100" y="450" width="208" height="54" as="geometry" />
        </mxCell>
        <mxCell id="xu_1kdxQS3Lf9o5p_RP--177" value="Add User" style="whiteSpace=wrap;strokeWidth=2;fillColor=#d5e8d4;strokeColor=#82b366;" vertex="1" parent="1">
          <mxGeometry x="-160" y="584" width="124" height="54" as="geometry" />
        </mxCell>
        <mxCell id="xu_1kdxQS3Lf9o5p_RP--178" value="Update Profile" style="whiteSpace=wrap;strokeWidth=2;fillColor=#d5e8d4;strokeColor=#82b366;" vertex="1" parent="1">
          <mxGeometry x="-100" y="652" width="163" height="54" as="geometry" />
        </mxCell>
        <mxCell id="xu_1kdxQS3Lf9o5p_RP--179" value="View Profile" style="whiteSpace=wrap;strokeWidth=2;fillColor=#d5e8d4;strokeColor=#82b366;" vertex="1" parent="1">
          <mxGeometry x="10" y="584" width="146" height="54" as="geometry" />
        </mxCell>
        <mxCell id="xu_1kdxQS3Lf9o5p_RP--180" value="Manage Job Listings" style="whiteSpace=wrap;strokeWidth=2;fillColor=#fff2cc;strokeColor=#d6b656;" vertex="1" parent="1">
          <mxGeometry x="250" y="450" width="202" height="54" as="geometry" />
        </mxCell>
        <mxCell id="xu_1kdxQS3Lf9o5p_RP--181" value="Add Job" style="whiteSpace=wrap;strokeWidth=2;fillColor=#d5e8d4;strokeColor=#82b366;" vertex="1" parent="1">
          <mxGeometry x="200" y="584" width="117" height="54" as="geometry" />
        </mxCell>
        <mxCell id="xu_1kdxQS3Lf9o5p_RP--182" value="Edit Job" style="whiteSpace=wrap;strokeWidth=2;fillColor=#d5e8d4;strokeColor=#82b366;" vertex="1" parent="1">
          <mxGeometry x="292" y="652" width="118" height="54" as="geometry" />
        </mxCell>
        <mxCell id="xu_1kdxQS3Lf9o5p_RP--183" value="View Jobs" style="whiteSpace=wrap;strokeWidth=2;fillColor=#d5e8d4;strokeColor=#82b366;" vertex="1" parent="1">
          <mxGeometry x="370" y="584" width="131" height="54" as="geometry" />
        </mxCell>
        <mxCell id="xu_1kdxQS3Lf9o5p_RP--184" value="Manage Applications" style="whiteSpace=wrap;strokeWidth=2;fillColor=#fff2cc;strokeColor=#d6b656;" vertex="1" parent="1">
          <mxGeometry x="672.5" y="450" width="205" height="54" as="geometry" />
        </mxCell>
        <mxCell id="xu_1kdxQS3Lf9o5p_RP--185" value="Apply for Jobs" style="whiteSpace=wrap;strokeWidth=2;fillColor=#d5e8d4;strokeColor=#82b366;" vertex="1" parent="1">
          <mxGeometry x="570" y="584" width="162" height="54" as="geometry" />
        </mxCell>
        <mxCell id="xu_1kdxQS3Lf9o5p_RP--186" value="Withdraw Applications" style="whiteSpace=wrap;strokeWidth=2;fillColor=#d5e8d4;strokeColor=#82b366;" vertex="1" parent="1">
          <mxGeometry x="665" y="652" width="220" height="54" as="geometry" />
        </mxCell>
        <mxCell id="xu_1kdxQS3Lf9o5p_RP--187" value="Track Applications" style="whiteSpace=wrap;strokeWidth=2;fillColor=#d5e8d4;strokeColor=#82b366;" vertex="1" parent="1">
          <mxGeometry x="800" y="584" width="190" height="54" as="geometry" />
        </mxCell>
        <mxCell id="xu_1kdxQS3Lf9o5p_RP--188" value="Manage Notifications" style="whiteSpace=wrap;strokeWidth=2;fillColor=#fff2cc;strokeColor=#d6b656;" vertex="1" parent="1">
          <mxGeometry x="1088" y="450" width="210" height="54" as="geometry" />
        </mxCell>
        <mxCell id="xu_1kdxQS3Lf9o5p_RP--189" value="Manage Job Alerts" style="whiteSpace=wrap;strokeWidth=2;fillColor=#d5e8d4;strokeColor=#82b366;" vertex="1" parent="1">
          <mxGeometry x="1070" y="580" width="189" height="54" as="geometry" />
        </mxCell>
        <mxCell id="xu_1kdxQS3Lf9o5p_RP--190" value="Turn ON" style="whiteSpace=wrap;strokeWidth=2;fillColor=#e1d5e7;strokeColor=#9673a6;" vertex="1" parent="1">
          <mxGeometry x="1050" y="680" width="117" height="54" as="geometry" />
        </mxCell>
        <mxCell id="xu_1kdxQS3Lf9o5p_RP--191" value="Turn OFF" style="whiteSpace=wrap;strokeWidth=2;fillColor=#e1d5e7;strokeColor=#9673a6;" vertex="1" parent="1">
          <mxGeometry x="1153" y="746" width="123" height="54" as="geometry" />
        </mxCell>
        <mxCell id="xu_1kdxQS3Lf9o5p_RP--192" value="Manage Interview Alerts" style="whiteSpace=wrap;strokeWidth=2;fillColor=#d5e8d4;strokeColor=#82b366;" vertex="1" parent="1">
          <mxGeometry x="1280" y="580" width="232" height="54" as="geometry" />
        </mxCell>
        <mxCell id="xu_1kdxQS3Lf9o5p_RP--193" value="Daily" style="whiteSpace=wrap;strokeWidth=2;fillColor=#e1d5e7;strokeColor=#9673a6;" vertex="1" parent="1">
          <mxGeometry x="1290" y="686" width="95" height="54" as="geometry" />
        </mxCell>
        <mxCell id="xu_1kdxQS3Lf9o5p_RP--194" value="Weekly" style="whiteSpace=wrap;strokeWidth=2;fillColor=#e1d5e7;strokeColor=#9673a6;" vertex="1" parent="1">
          <mxGeometry x="1400" y="686" width="111" height="54" as="geometry" />
        </mxCell>
        <mxCell id="xu_1kdxQS3Lf9o5p_RP--195" value="Manage Payments" style="whiteSpace=wrap;strokeWidth=2;fillColor=#fff2cc;strokeColor=#d6b656;" vertex="1" parent="1">
          <mxGeometry x="1690" y="450" width="187" height="54" as="geometry" />
        </mxCell>
        <mxCell id="xu_1kdxQS3Lf9o5p_RP--196" value="Process Payments" style="whiteSpace=wrap;strokeWidth=2;fillColor=#d5e8d4;strokeColor=#82b366;" vertex="1" parent="1">
          <mxGeometry x="1580" y="580" width="185" height="54" as="geometry" />
        </mxCell>
        <mxCell id="xu_1kdxQS3Lf9o5p_RP--197" value="Schedule Payments" style="whiteSpace=wrap;strokeWidth=2;fillColor=#d5e8d4;strokeColor=#82b366;" vertex="1" parent="1">
          <mxGeometry x="1680" y="646" width="197" height="54" as="geometry" />
        </mxCell>
        <mxCell id="xu_1kdxQS3Lf9o5p_RP--198" value="Pause Payments" style="whiteSpace=wrap;strokeWidth=2;fillColor=#d5e8d4;strokeColor=#82b366;" vertex="1" parent="1">
          <mxGeometry x="1810" y="580" width="173" height="54" as="geometry" />
        </mxCell>
        <mxCell id="xu_1kdxQS3Lf9o5p_RP--199" value="Function 1" style="startArrow=none;endArrow=block;exitX=0;exitY=0.71;entryX=0.5;entryY=-0.01;rounded=0;" edge="1" parent="1" source="xu_1kdxQS3Lf9o5p_RP--175" target="xu_1kdxQS3Lf9o5p_RP--176">
          <mxGeometry relative="1" as="geometry" />
        </mxCell>
        <mxCell id="xu_1kdxQS3Lf9o5p_RP--200" value="" style="startArrow=none;endArrow=block;exitX=0.3;exitY=0.99;entryX=0.5;entryY=0.01;rounded=0;" edge="1" parent="1" source="xu_1kdxQS3Lf9o5p_RP--176" target="xu_1kdxQS3Lf9o5p_RP--177">
          <mxGeometry relative="1" as="geometry" />
        </mxCell>
        <mxCell id="xu_1kdxQS3Lf9o5p_RP--201" value="" style="startArrow=none;endArrow=block;exitX=0.421;exitY=1.01;entryX=0.551;entryY=0.007;rounded=0;exitDx=0;exitDy=0;exitPerimeter=0;entryDx=0;entryDy=0;entryPerimeter=0;" edge="1" parent="1" source="xu_1kdxQS3Lf9o5p_RP--176" target="xu_1kdxQS3Lf9o5p_RP--178">
          <mxGeometry relative="1" as="geometry" />
        </mxCell>
        <mxCell id="xu_1kdxQS3Lf9o5p_RP--202" value="" style="startArrow=none;endArrow=block;exitX=0.75;exitY=1;entryX=0.5;entryY=0.01;rounded=0;exitDx=0;exitDy=0;" edge="1" parent="1" source="xu_1kdxQS3Lf9o5p_RP--176" target="xu_1kdxQS3Lf9o5p_RP--179">
          <mxGeometry relative="1" as="geometry">
            <Array as="points" />
          </mxGeometry>
        </mxCell>
        <mxCell id="xu_1kdxQS3Lf9o5p_RP--204" value="Function 2" style="startArrow=none;endArrow=block;exitX=0.25;exitY=1;entryX=0.5;entryY=0;rounded=0;exitDx=0;exitDy=0;entryDx=0;entryDy=0;" edge="1" parent="1" source="xu_1kdxQS3Lf9o5p_RP--175" target="xu_1kdxQS3Lf9o5p_RP--180">
          <mxGeometry relative="1" as="geometry" />
        </mxCell>
        <mxCell id="xu_1kdxQS3Lf9o5p_RP--205" value="" style="startArrow=none;endArrow=block;exitX=0.134;exitY=0.972;entryX=0.5;entryY=0;rounded=0;exitDx=0;exitDy=0;exitPerimeter=0;" edge="1" parent="1" source="xu_1kdxQS3Lf9o5p_RP--180" target="xu_1kdxQS3Lf9o5p_RP--181">
          <mxGeometry relative="1" as="geometry" />
        </mxCell>
        <mxCell id="xu_1kdxQS3Lf9o5p_RP--206" value="" style="startArrow=none;endArrow=block;exitX=0.5;exitY=1;entryX=0.5;entryY=0;rounded=0;exitDx=0;exitDy=0;" edge="1" parent="1" source="xu_1kdxQS3Lf9o5p_RP--180" target="xu_1kdxQS3Lf9o5p_RP--182">
          <mxGeometry relative="1" as="geometry" />
        </mxCell>
        <mxCell id="xu_1kdxQS3Lf9o5p_RP--207" value="" style="startArrow=none;endArrow=block;exitX=0.73;exitY=1.01;entryX=0.5;entryY=0;rounded=0;" edge="1" parent="1" source="xu_1kdxQS3Lf9o5p_RP--180" target="xu_1kdxQS3Lf9o5p_RP--183">
          <mxGeometry relative="1" as="geometry" />
        </mxCell>
        <mxCell id="xu_1kdxQS3Lf9o5p_RP--209" value="Function 3" style="startArrow=none;endArrow=block;exitX=0.5;exitY=1;entryX=0.5;entryY=0;rounded=0;exitDx=0;exitDy=0;entryDx=0;entryDy=0;" edge="1" parent="1" source="xu_1kdxQS3Lf9o5p_RP--175" target="xu_1kdxQS3Lf9o5p_RP--184">
          <mxGeometry relative="1" as="geometry" />
        </mxCell>
        <mxCell id="xu_1kdxQS3Lf9o5p_RP--210" value="" style="startArrow=none;endArrow=block;exitX=0;exitY=1;entryX=0.5;entryY=0;rounded=0;exitDx=0;exitDy=0;" edge="1" parent="1" source="xu_1kdxQS3Lf9o5p_RP--184" target="xu_1kdxQS3Lf9o5p_RP--185">
          <mxGeometry relative="1" as="geometry" />
        </mxCell>
        <mxCell id="xu_1kdxQS3Lf9o5p_RP--211" value="" style="startArrow=none;endArrow=block;exitX=0.5;exitY=1;entryX=0.5;entryY=0;rounded=0;exitDx=0;exitDy=0;" edge="1" parent="1" source="xu_1kdxQS3Lf9o5p_RP--184" target="xu_1kdxQS3Lf9o5p_RP--186">
          <mxGeometry relative="1" as="geometry" />
        </mxCell>
        <mxCell id="xu_1kdxQS3Lf9o5p_RP--212" value="" style="startArrow=none;endArrow=block;exitX=1;exitY=1;entryX=0.5;entryY=0;rounded=0;exitDx=0;exitDy=0;" edge="1" parent="1" source="xu_1kdxQS3Lf9o5p_RP--184" target="xu_1kdxQS3Lf9o5p_RP--187">
          <mxGeometry relative="1" as="geometry" />
        </mxCell>
        <mxCell id="xu_1kdxQS3Lf9o5p_RP--214" value="Function 4" style="startArrow=none;endArrow=block;exitX=1;exitY=0.65;entryX=0.5;entryY=0;rounded=0;entryDx=0;entryDy=0;" edge="1" parent="1" source="xu_1kdxQS3Lf9o5p_RP--175" target="xu_1kdxQS3Lf9o5p_RP--188">
          <mxGeometry relative="1" as="geometry" />
        </mxCell>
        <mxCell id="xu_1kdxQS3Lf9o5p_RP--215" value="" style="startArrow=none;endArrow=block;exitX=0.25;exitY=1;entryX=0.5;entryY=0;rounded=0;exitDx=0;exitDy=0;" edge="1" parent="1" source="xu_1kdxQS3Lf9o5p_RP--188" target="xu_1kdxQS3Lf9o5p_RP--189">
          <mxGeometry relative="1" as="geometry" />
        </mxCell>
        <mxCell id="xu_1kdxQS3Lf9o5p_RP--216" value="" style="startArrow=none;endArrow=block;exitX=0.27;exitY=1;entryX=0.49;entryY=0;rounded=0;" edge="1" parent="1" source="xu_1kdxQS3Lf9o5p_RP--189" target="xu_1kdxQS3Lf9o5p_RP--190">
          <mxGeometry relative="1" as="geometry" />
        </mxCell>
        <mxCell id="xu_1kdxQS3Lf9o5p_RP--217" value="" style="startArrow=none;endArrow=block;exitX=0.74;exitY=1;entryX=0.5;entryY=0;rounded=0;" edge="1" parent="1" source="xu_1kdxQS3Lf9o5p_RP--189" target="xu_1kdxQS3Lf9o5p_RP--191">
          <mxGeometry relative="1" as="geometry" />
        </mxCell>
        <mxCell id="xu_1kdxQS3Lf9o5p_RP--218" value="" style="startArrow=none;endArrow=block;exitX=0.75;exitY=1;entryX=0.5;entryY=0;rounded=0;exitDx=0;exitDy=0;" edge="1" parent="1" source="xu_1kdxQS3Lf9o5p_RP--188" target="xu_1kdxQS3Lf9o5p_RP--192">
          <mxGeometry relative="1" as="geometry" />
        </mxCell>
        <mxCell id="xu_1kdxQS3Lf9o5p_RP--219" value="" style="startArrow=none;endArrow=block;exitX=0.33;exitY=1;entryX=0.5;entryY=0;rounded=0;" edge="1" parent="1" source="xu_1kdxQS3Lf9o5p_RP--192" target="xu_1kdxQS3Lf9o5p_RP--193">
          <mxGeometry relative="1" as="geometry" />
        </mxCell>
        <mxCell id="xu_1kdxQS3Lf9o5p_RP--220" value="" style="startArrow=none;endArrow=block;exitX=0.67;exitY=1;entryX=0.5;entryY=0;rounded=0;" edge="1" parent="1">
          <mxGeometry relative="1" as="geometry">
            <mxPoint x="1375.4399999999996" y="634" as="sourcePoint" />
            <mxPoint x="1395.5" y="686" as="targetPoint" />
          </mxGeometry>
        </mxCell>
        <mxCell id="xu_1kdxQS3Lf9o5p_RP--222" value="Function 5" style="startArrow=none;endArrow=block;exitX=1;exitY=0.63;entryX=0.53;entryY=0;rounded=0;" edge="1" parent="1" source="xu_1kdxQS3Lf9o5p_RP--175" target="xu_1kdxQS3Lf9o5p_RP--195">
          <mxGeometry relative="1" as="geometry" />
        </mxCell>
        <mxCell id="xu_1kdxQS3Lf9o5p_RP--223" value="" style="startArrow=none;endArrow=block;exitX=0.091;exitY=1.019;entryX=0.5;entryY=0;rounded=0;exitDx=0;exitDy=0;exitPerimeter=0;" edge="1" parent="1" source="xu_1kdxQS3Lf9o5p_RP--195" target="xu_1kdxQS3Lf9o5p_RP--196">
          <mxGeometry relative="1" as="geometry" />
        </mxCell>
        <mxCell id="xu_1kdxQS3Lf9o5p_RP--224" value="" style="startArrow=none;endArrow=block;exitX=0.447;exitY=1.08;entryX=0.5;entryY=0;rounded=0;exitDx=0;exitDy=0;exitPerimeter=0;" edge="1" parent="1" source="xu_1kdxQS3Lf9o5p_RP--195" target="xu_1kdxQS3Lf9o5p_RP--197">
          <mxGeometry relative="1" as="geometry" />
        </mxCell>
        <mxCell id="xu_1kdxQS3Lf9o5p_RP--225" value="" style="startArrow=none;endArrow=block;exitX=0.83;exitY=1;entryX=0.5;entryY=0;rounded=0;" edge="1" parent="1" source="xu_1kdxQS3Lf9o5p_RP--195" target="xu_1kdxQS3Lf9o5p_RP--198">
          <mxGeometry relative="1" as="geometry" />
        </mxCell>
        <mxCell id="xu_1kdxQS3Lf9o5p_RP--228" value="" style="endArrow=none;html=1;rounded=0;strokeWidth=4;" edge="1" parent="1">
          <mxGeometry width="50" height="50" relative="1" as="geometry">
            <mxPoint x="543" y="870" as="sourcePoint" />
            <mxPoint x="543" y="200" as="targetPoint" />
          </mxGeometry>
        </mxCell>
        <mxCell id="xu_1kdxQS3Lf9o5p_RP--230" value="" style="endArrow=none;html=1;rounded=0;strokeWidth=4;" edge="1" parent="1">
          <mxGeometry width="50" height="50" relative="1" as="geometry">
            <mxPoint x="160" y="880" as="sourcePoint" />
            <mxPoint x="160" y="199" as="targetPoint" />
          </mxGeometry>
        </mxCell>
        <mxCell id="xu_1kdxQS3Lf9o5p_RP--231" value="" style="endArrow=none;html=1;rounded=0;strokeWidth=4;" edge="1" parent="1">
          <mxGeometry width="50" height="50" relative="1" as="geometry">
            <mxPoint x="1030" y="860" as="sourcePoint" />
            <mxPoint x="1030" y="200" as="targetPoint" />
          </mxGeometry>
        </mxCell>
        <mxCell id="xu_1kdxQS3Lf9o5p_RP--232" value="" style="endArrow=none;html=1;rounded=0;strokeWidth=4;" edge="1" parent="1">
          <mxGeometry width="50" height="50" relative="1" as="geometry">
            <mxPoint x="1541" y="850" as="sourcePoint" />
            <mxPoint x="1541" y="195" as="targetPoint" />
          </mxGeometry>
        </mxCell>
      </root>
    </mxGraphModel>
  </diagram>
</mxfile>
